<?xml version="1.0" standalone="no"?>
<!DOCTYPE svg PUBLIC "-//W3C//DTD SVG 20010904//EN"
 "http://www.w3.org/TR/2001/REC-SVG-20010904/DTD/svg10.dtd">
<svg version="1.0" xmlns="http://www.w3.org/2000/svg"
 width="3264.000000pt" height="3264.000000pt" viewBox="0 0 3264.000000 3264.000000"
 preserveAspectRatio="xMidYMid meet">

<g transform="translate(0.000000,3264.000000) scale(0.100000,-0.100000)"
fill="#000000" stroke="none">
<path d="M7864 28028 c-22 -10 -64 -79 -64 -104 0 -8 -4 -14 -10 -14 -5 0 -10
-9 -10 -19 0 -11 -4 -23 -10 -26 -5 -3 -10 -15 -10 -26 0 -10 -4 -19 -10 -19
-5 0 -10 -7 -10 -15 0 -15 -4 -25 -28 -72 -7 -13 -12 -29 -12 -37 0 -8 -10
-34 -21 -58 -12 -23 -25 -52 -29 -63 -11 -29 -38 -91 -67 -155 -14 -30 -29
-64 -33 -75 -4 -11 -17 -40 -28 -65 -42 -94 -53 -121 -78 -187 -22 -59 -65
-163 -121 -293 -8 -19 -18 -44 -23 -55 -4 -11 -17 -40 -29 -63 -11 -24 -21
-50 -21 -58 0 -8 -4 -14 -10 -14 -5 0 -10 -7 -10 -15 0 -8 -4 -23 -9 -33 -20
-38 -63 -138 -81 -187 -4 -11 -18 -41 -30 -68 -20 -39 -21 -51 -12 -72 15 -32
27 -61 42 -105 14 -39 35 -90 56 -134 8 -16 14 -35 14 -43 0 -7 5 -13 10 -13
6 0 10 -7 10 -15 0 -8 4 -23 10 -33 13 -22 70 -151 70 -157 0 -3 9 -27 21 -53
12 -26 25 -57 30 -69 5 -13 13 -33 19 -45 5 -13 28 -70 51 -128 22 -58 49
-123 59 -146 11 -22 29 -65 40 -95 12 -29 32 -77 46 -107 13 -29 24 -55 24
-57 0 -3 9 -27 21 -53 12 -26 26 -58 31 -72 6 -14 14 -33 19 -42 5 -10 9 -25
9 -33 0 -8 5 -15 10 -15 6 0 10 -7 10 -15 0 -8 9 -37 21 -63 12 -26 26 -58 31
-72 6 -14 14 -33 19 -42 5 -10 9 -25 9 -33 0 -8 5 -15 10 -15 6 0 10 -7 10
-15 0 -8 4 -23 9 -33 11 -22 50 -109 64 -142 18 -47 26 -65 82 -195 31 -71 81
-192 110 -267 30 -76 65 -162 78 -190 13 -29 29 -69 36 -88 7 -19 22 -54 32
-77 19 -43 39 -88 80 -180 12 -27 25 -56 30 -65 5 -10 9 -22 9 -28 0 -10 11
-36 62 -150 11 -25 24 -54 28 -65 9 -24 48 -113 61 -137 5 -10 9 -22 9 -28 0
-5 16 -45 36 -87 40 -86 68 -155 91 -221 8 -24 29 -76 48 -115 18 -40 47 -109
65 -155 18 -45 36 -85 41 -88 5 -3 9 -13 9 -24 0 -10 9 -35 19 -57 41 -82 81
-172 81 -182 0 -12 6 -26 101 -238 12 -27 26 -59 31 -73 6 -14 14 -33 19 -42
5 -10 9 -25 9 -33 0 -8 5 -15 10 -15 6 0 10 -11 10 -25 0 -14 5 -25 10 -25 6
0 10 -10 10 -22 0 -13 9 -34 20 -48 11 -14 20 -30 20 -37 0 -6 9 -28 19 -50
11 -21 32 -72 47 -113 15 -41 31 -79 35 -85 4 -5 18 -40 32 -76 25 -67 77
-190 103 -243 8 -16 14 -33 14 -38 0 -8 12 -36 62 -148 11 -25 24 -54 28 -65
9 -24 48 -113 61 -137 5 -10 9 -22 9 -28 0 -11 6 -25 101 -237 12 -27 25 -57
29 -68 5 -11 22 -50 39 -87 17 -37 31 -73 31 -80 0 -8 4 -18 9 -24 4 -5 20
-40 35 -79 15 -38 34 -83 41 -100 45 -104 124 -299 155 -380 4 -11 13 -33 20
-50 12 -28 18 -44 39 -97 4 -13 18 -43 30 -66 11 -24 21 -49 21 -56 0 -6 18
-47 40 -91 22 -44 40 -88 40 -97 0 -10 5 -18 10 -18 6 0 10 -11 10 -24 0 -14
5 -28 10 -31 6 -3 10 -15 10 -26 0 -10 5 -19 10 -19 6 0 10 -6 10 -14 0 -7 14
-42 31 -77 18 -35 35 -73 39 -84 4 -11 18 -42 30 -70 24 -52 30 -68 51 -125 7
-19 27 -67 45 -106 18 -39 39 -89 47 -110 30 -84 148 -371 167 -407 11 -22 20
-49 20 -62 0 -13 3 -25 8 -27 9 -4 52 -86 52 -100 0 -5 14 -39 31 -76 17 -37
34 -76 39 -87 4 -11 21 -49 39 -84 17 -35 31 -70 31 -78 0 -7 4 -21 9 -31 8
-16 15 -31 43 -99 7 -18 16 -33 20 -33 5 0 8 -11 8 -24 0 -14 5 -28 10 -31 6
-3 10 -13 10 -21 0 -8 15 -47 34 -87 19 -40 37 -83 41 -97 4 -14 22 -59 40
-100 18 -41 41 -95 50 -120 21 -52 63 -147 76 -172 5 -10 9 -26 9 -35 0 -10 9
-29 20 -43 11 -14 20 -32 20 -41 0 -8 9 -34 20 -57 11 -22 20 -45 20 -51 0 -8
16 -44 51 -113 5 -10 9 -25 9 -33 0 -8 5 -15 10 -15 6 0 10 -7 10 -15 0 -8 4
-23 9 -33 8 -16 15 -31 43 -99 7 -18 15 -33 19 -33 3 0 12 -23 19 -50 7 -28
17 -50 22 -50 4 0 8 -10 8 -22 0 -13 9 -34 20 -48 11 -14 20 -34 20 -46 0 -11
4 -24 8 -30 5 -5 15 -28 22 -51 7 -24 16 -43 21 -43 4 0 10 -12 14 -27 3 -15
15 -45 24 -68 10 -22 40 -89 66 -150 50 -117 61 -143 94 -217 12 -26 21 -53
21 -59 0 -6 13 -39 28 -73 16 -33 37 -79 47 -101 9 -22 23 -53 31 -69 8 -16
14 -35 14 -42 0 -7 9 -29 20 -49 11 -20 20 -40 20 -46 0 -6 13 -38 29 -72 59
-127 71 -157 71 -177 0 -11 5 -20 10 -20 6 0 10 -7 10 -15 0 -8 4 -23 9 -33
12 -23 51 -112 61 -137 5 -11 17 -41 29 -67 12 -26 21 -52 21 -58 0 -6 4 -18
9 -28 5 -9 13 -28 19 -42 6 -14 24 -54 40 -90 16 -36 37 -85 47 -110 10 -25
29 -68 42 -97 12 -28 23 -55 23 -60 0 -4 11 -30 25 -57 14 -27 25 -55 25 -63
0 -7 4 -21 9 -31 5 -9 16 -33 24 -52 51 -123 73 -172 99 -230 17 -36 34 -75
39 -87 5 -13 14 -35 20 -50 7 -16 15 -37 19 -48 4 -11 21 -49 39 -84 17 -35
31 -70 31 -76 0 -7 10 -33 21 -57 12 -23 25 -52 30 -63 4 -11 21 -50 38 -86
17 -37 31 -76 31 -87 0 -11 3 -22 8 -24 7 -3 62 -126 62 -140 0 -4 13 -36 30
-70 16 -34 30 -67 30 -74 0 -7 9 -29 19 -51 11 -21 29 -60 41 -88 12 -27 29
-68 40 -90 19 -41 36 -84 51 -122 23 -58 28 -72 57 -133 53 -114 72 -160 72
-170 0 -6 5 -19 10 -30 6 -11 15 -29 20 -40 6 -11 10 -26 10 -34 0 -7 9 -25
20 -39 11 -14 20 -32 20 -41 0 -8 9 -31 20 -51 11 -20 20 -40 20 -45 0 -10 20
-56 61 -145 10 -22 32 -76 49 -120 66 -169 89 -222 114 -275 14 -29 26 -58 26
-63 0 -4 11 -33 25 -63 14 -30 25 -59 25 -64 0 -9 61 -147 80 -182 6 -10 10
-25 10 -33 0 -8 4 -23 9 -33 5 -9 23 -51 41 -92 18 -41 50 -111 71 -156 22
-44 39 -84 39 -87 0 -4 10 -29 21 -55 12 -26 28 -62 35 -79 8 -18 21 -50 30
-70 9 -21 20 -47 24 -58 4 -11 15 -36 23 -55 8 -19 27 -64 42 -100 15 -36 36
-83 45 -105 10 -23 39 -90 64 -150 50 -119 54 -127 85 -197 12 -26 21 -50 21
-53 0 -3 9 -27 21 -53 12 -26 25 -56 29 -67 4 -11 17 -41 29 -67 12 -26 21
-50 21 -53 0 -3 9 -27 21 -53 23 -52 38 -86 49 -117 4 -11 19 -45 33 -75 14
-30 42 -95 61 -145 19 -49 41 -103 49 -120 8 -16 23 -48 32 -70 10 -22 33 -71
51 -110 18 -38 63 -144 99 -235 37 -91 80 -196 97 -235 66 -153 68 -159 98
-240 11 -33 30 -78 41 -100 10 -22 19 -44 19 -50 0 -5 9 -28 19 -50 33 -67 61
-134 61 -145 0 -6 4 -18 10 -28 5 -9 21 -43 34 -75 l25 -57 518 2 518 3 27 55
c15 30 44 98 64 150 21 52 43 102 50 110 6 8 28 60 48 115 21 55 51 127 67
161 16 33 29 67 29 75 0 8 4 19 9 24 4 6 32 69 61 140 28 72 64 157 79 190 15
33 36 80 46 105 10 25 25 52 32 61 7 8 13 22 13 30 0 9 11 39 25 68 14 29 33
73 42 99 16 47 35 94 79 188 13 28 24 57 24 63 0 7 7 27 16 44 30 57 34 67 34
79 0 7 14 40 30 73 16 33 30 64 30 69 0 5 9 28 19 50 49 107 77 171 123 286
27 69 54 139 60 155 6 17 23 57 38 90 15 33 44 98 63 145 19 47 47 111 61 143
14 31 37 82 51 112 14 31 25 60 25 66 0 5 8 26 19 47 10 20 29 66 41 102 12
36 28 72 34 80 20 26 36 59 36 73 0 7 13 39 30 72 16 33 30 66 30 73 0 11 10
33 32 72 14 25 30 64 34 84 2 10 10 26 19 36 8 9 15 25 15 36 0 11 9 37 20 59
11 22 20 44 20 50 0 6 8 29 19 51 52 111 91 205 91 222 0 8 6 23 13 31 8 9 22
36 31 61 22 56 72 173 97 223 10 22 19 43 19 48 0 6 9 29 20 51 11 23 20 50
20 59 0 10 4 20 9 23 4 3 16 27 25 53 9 26 23 62 31 78 14 32 22 55 23 68 1 7
24 54 68 139 8 14 14 31 14 37 0 6 11 34 24 63 26 58 38 87 41 104 2 7 17 43
35 80 17 38 35 78 40 89 4 11 15 36 24 57 9 20 16 38 16 41 0 3 5 18 12 34 6
15 12 34 14 41 1 7 9 23 17 35 8 12 29 62 47 111 18 50 49 126 70 170 20 45
42 97 49 116 7 19 21 53 31 75 46 102 60 135 60 140 0 3 9 27 21 53 25 56 30
69 60 147 12 33 30 71 39 85 8 14 22 43 29 65 8 22 23 60 33 85 11 25 24 54
28 65 4 11 15 36 23 55 8 19 27 64 42 100 14 36 35 84 46 107 10 24 19 49 19
56 0 7 4 17 9 22 4 6 21 44 36 85 15 41 33 82 40 90 7 8 20 40 29 70 10 30 26
69 36 85 10 17 21 41 25 55 4 14 18 49 31 78 13 29 24 56 24 60 0 5 9 27 20
50 11 22 20 45 20 50 0 5 6 22 14 38 13 27 26 57 60 137 26 61 48 112 66 152
40 90 50 113 50 121 0 4 12 32 26 63 14 31 30 65 34 76 4 11 18 43 31 70 12
28 26 59 29 70 4 11 14 36 22 55 9 20 28 67 43 105 15 39 33 84 40 100 33 75
60 136 91 214 19 46 46 108 59 138 14 29 25 57 25 62 0 4 6 21 14 37 15 32 44
98 56 129 20 54 54 134 71 168 11 22 19 45 19 51 0 7 6 26 14 42 39 82 47 104
48 132 1 30 -33 128 -60 169 -7 12 -23 40 -35 62 -45 84 -108 187 -142 231
-19 25 -50 69 -70 98 -20 28 -40 52 -44 52 -4 0 -12 9 -17 19 -21 44 -114 141
-432 447 -29 29 -77 68 -107 88 -30 20 -55 41 -55 46 0 6 -5 10 -11 10 -6 0
-33 18 -59 40 -26 22 -52 40 -56 40 -5 0 -22 11 -38 25 -16 14 -33 25 -37 25
-4 0 -14 7 -22 15 -9 8 -42 28 -74 45 l-58 31 -22 -28 c-13 -15 -23 -34 -23
-41 0 -7 -9 -30 -19 -50 -11 -20 -23 -48 -29 -62 -5 -14 -23 -53 -40 -88 -18
-35 -32 -70 -32 -78 0 -8 -4 -14 -10 -14 -5 0 -10 -7 -10 -15 0 -8 -9 -37 -21
-63 -12 -26 -25 -56 -29 -67 -5 -11 -17 -40 -28 -65 -75 -169 -102 -234 -102
-245 0 -7 -7 -18 -15 -25 -8 -7 -15 -20 -15 -29 0 -9 -9 -34 -20 -56 -11 -22
-20 -43 -20 -47 0 -5 -13 -36 -29 -71 -35 -74 -50 -110 -85 -197 -15 -36 -33
-77 -41 -92 -8 -14 -15 -31 -15 -38 0 -6 -12 -37 -26 -68 -14 -31 -29 -66 -34
-77 -4 -11 -17 -41 -29 -67 -12 -26 -21 -54 -21 -62 0 -8 -4 -17 -9 -21 -5 -3
-17 -27 -27 -53 -14 -40 -44 -114 -75 -187 -4 -11 -26 -60 -49 -108 -22 -49
-40 -93 -40 -98 0 -5 -4 -17 -9 -27 -23 -41 -71 -151 -71 -161 0 -6 -4 -19
-10 -29 -5 -9 -14 -28 -20 -42 -5 -14 -14 -32 -19 -40 -5 -8 -19 -42 -31 -75
-20 -55 -59 -143 -81 -187 -5 -10 -9 -24 -9 -33 0 -8 -14 -40 -30 -70 -17 -30
-30 -63 -30 -71 0 -9 -18 -54 -40 -100 -22 -47 -40 -89 -40 -94 0 -6 -4 -18
-9 -28 -5 -9 -26 -60 -46 -112 -21 -52 -44 -102 -51 -111 -8 -8 -14 -23 -14
-31 0 -9 -9 -33 -19 -55 -11 -21 -34 -74 -51 -118 -18 -44 -36 -87 -41 -95 -5
-8 -14 -26 -19 -40 -6 -14 -15 -33 -20 -42 -6 -10 -10 -22 -10 -28 0 -6 -8
-29 -19 -53 -10 -23 -40 -94 -66 -157 -26 -63 -60 -145 -76 -183 -16 -37 -29
-73 -29 -81 0 -7 -9 -25 -20 -39 -11 -14 -20 -31 -20 -38 0 -7 -9 -33 -21 -58
-11 -25 -24 -55 -28 -66 -8 -21 -66 -147 -82 -177 -5 -10 -9 -22 -9 -28 0 -10
-11 -35 -71 -168 -16 -34 -29 -68 -29 -75 0 -8 -9 -22 -20 -32 -11 -10 -20
-29 -20 -42 0 -13 -4 -31 -9 -41 -5 -9 -23 -51 -40 -92 -37 -92 -100 -246
-147 -360 -35 -83 -44 -104 -99 -225 -15 -33 -34 -76 -42 -95 -25 -57 -54
-122 -74 -163 -11 -22 -19 -43 -19 -48 0 -9 -33 -87 -51 -121 -5 -10 -9 -22
-9 -28 0 -5 -13 -39 -30 -75 -16 -36 -30 -70 -30 -75 0 -6 -4 -18 -9 -28 -5
-9 -13 -28 -18 -42 -6 -14 -20 -45 -32 -68 -11 -24 -21 -50 -21 -58 0 -8 -4
-22 -10 -32 -5 -9 -28 -60 -51 -112 -22 -52 -55 -126 -71 -165 -17 -38 -39
-89 -50 -113 -10 -24 -26 -62 -34 -85 -19 -51 -32 -82 -49 -122 -8 -16 -21
-48 -30 -70 -9 -22 -21 -48 -26 -57 -5 -10 -9 -24 -9 -31 0 -8 -6 -27 -14 -43
-24 -50 -44 -98 -57 -136 -14 -40 -17 -43 -35 -30 -9 6 -54 95 -54 107 0 11
-93 227 -142 328 -10 22 -18 43 -18 48 0 5 -14 38 -30 74 -16 36 -30 68 -30
70 0 2 -14 35 -31 72 -17 38 -45 102 -61 143 -17 41 -34 79 -39 85 -5 5 -9 15
-9 22 0 8 -9 33 -20 55 -11 23 -20 47 -20 52 0 6 -18 46 -39 90 -22 43 -37 84
-35 91 3 6 -2 18 -11 25 -8 7 -15 20 -15 29 0 9 -9 27 -20 41 -11 14 -20 37
-20 51 0 15 -7 32 -15 39 -8 7 -20 30 -25 52 -6 22 -38 103 -71 182 -32 78
-59 147 -59 152 0 5 -9 27 -20 49 -20 41 -63 138 -85 190 -7 17 -22 53 -35 80
-12 28 -26 59 -30 70 -4 11 -17 41 -29 67 -12 26 -21 53 -21 60 0 7 -9 24 -20
38 -11 14 -20 32 -20 41 0 14 -27 80 -50 121 -6 10 -10 24 -10 33 0 8 -9 30
-20 50 -11 20 -20 42 -20 50 0 8 -4 15 -10 15 -5 0 -10 7 -10 15 0 9 -9 35
-20 57 -11 23 -20 48 -20 55 0 7 -9 28 -20 48 -11 19 -17 35 -14 35 3 0 -3 15
-12 33 -30 57 -46 97 -106 257 -11 30 -34 84 -50 120 -17 36 -38 84 -49 108
-10 23 -27 61 -39 85 -11 23 -20 45 -20 49 0 4 -14 36 -30 70 -17 34 -30 66
-30 72 0 6 -14 38 -30 71 -17 33 -30 64 -30 70 0 5 -14 37 -30 70 -17 33 -30
63 -30 68 0 4 -9 27 -20 49 -11 23 -20 48 -20 55 0 8 -14 42 -31 76 -17 34
-35 70 -40 79 -5 10 -9 25 -9 33 0 8 -4 15 -10 15 -5 0 -10 11 -10 24 0 14 -4
28 -10 31 -5 3 -10 13 -10 21 0 8 -9 36 -21 62 -25 57 -42 97 -59 137 -7 17
-16 38 -21 47 -5 10 -9 23 -9 29 0 7 -9 30 -19 53 -63 137 -81 178 -81 191 0
8 -4 15 -10 15 -5 0 -10 7 -10 15 0 9 -9 35 -20 57 -11 23 -20 47 -20 53 0 6
-13 35 -28 65 -16 30 -32 72 -36 92 -3 20 -13 41 -21 48 -8 7 -15 21 -15 31 0
10 -4 21 -10 24 -5 3 -10 15 -10 26 0 10 -4 19 -10 19 -5 0 -10 9 -10 20 0 11
-4 28 -9 38 -5 9 -14 31 -21 47 -7 17 -21 46 -31 66 -11 20 -19 44 -19 53 0 9
-4 16 -10 16 -5 0 -10 7 -10 15 0 18 -32 93 -68 160 -5 11 -17 36 -25 55 -8
19 -22 51 -30 70 -8 19 -36 89 -62 155 -25 66 -52 131 -60 145 -7 14 -16 40
-20 57 -3 18 -11 35 -16 38 -5 4 -9 15 -9 25 0 11 -18 55 -40 97 -22 43 -40
82 -40 87 0 6 -14 39 -31 75 -77 162 -106 229 -150 346 -12 33 -26 64 -31 69
-4 6 -8 18 -8 28 0 10 -4 18 -10 18 -5 0 -10 11 -10 25 0 14 -4 25 -10 25 -5
0 -10 9 -10 20 0 11 -8 34 -18 52 -10 18 -17 39 -15 45 3 7 -2 16 -11 19 -9 3
-16 17 -16 29 0 13 -5 27 -10 30 -6 4 -7 11 -4 17 4 6 1 16 -7 22 -15 12 -49
102 -49 130 0 9 -4 16 -8 16 -4 0 -14 17 -21 38 -17 51 -29 80 -52 124 -10 20
-19 42 -19 47 0 6 -13 39 -30 73 -16 34 -30 67 -30 73 0 7 -9 24 -20 38 -11
14 -20 32 -20 40 0 8 -8 32 -19 54 -36 74 -79 168 -91 203 -7 19 -17 39 -22
44 -4 6 -8 18 -8 28 0 10 -4 18 -10 18 -5 0 -10 7 -10 15 0 8 -4 23 -9 33 -37
74 -51 106 -51 118 0 8 -4 22 -9 32 -39 77 -51 106 -51 123 0 10 -4 19 -10 19
-5 0 -10 7 -10 15 0 8 -10 37 -21 63 -42 93 -49 110 -49 117 0 3 -11 30 -24
58 -57 122 -105 234 -111 260 -4 15 -11 30 -16 33 -5 3 -9 12 -9 21 0 8 -15
47 -34 86 -61 132 -126 293 -126 315 0 6 -4 12 -10 12 -5 0 -10 9 -10 20 0 11
-4 20 -10 20 -5 0 -10 7 -10 15 0 8 -9 35 -21 60 -12 25 -19 52 -15 60 3 8 1
15 -4 15 -10 0 -40 57 -40 77 0 7 -4 13 -10 13 -5 0 -10 11 -10 24 0 14 -4 28
-10 31 -5 3 -10 15 -10 26 0 10 -4 19 -10 19 -5 0 -10 9 -10 19 0 11 -4 23
-10 26 -5 3 -10 15 -10 26 0 10 -4 19 -10 19 -5 0 -10 11 -10 24 0 14 -4 28
-10 31 -5 3 -10 15 -10 26 0 10 -4 19 -10 19 -5 0 -10 9 -10 20 0 11 -4 20
-10 20 -5 0 -10 9 -10 20 0 11 -8 34 -18 52 -10 18 -33 69 -50 113 -17 44 -42
107 -57 140 -29 66 -43 97 -58 135 -5 14 -14 36 -20 50 -5 14 -13 34 -17 45
-5 11 -17 41 -29 67 -12 26 -21 50 -21 53 0 5 -11 30 -61 143 -10 23 -29 63
-40 90 -12 26 -30 64 -40 85 -11 22 -19 45 -19 53 0 8 -4 14 -10 14 -5 0 -10
9 -10 20 0 11 -4 28 -9 38 -13 24 -52 113 -61 137 -4 11 -18 43 -30 70 -12 28
-26 59 -30 70 -4 11 -12 32 -19 48 -6 15 -15 37 -20 50 -9 23 -26 63 -58 137
-11 25 -26 61 -32 80 -16 42 -24 63 -45 113 -9 20 -23 54 -32 75 -23 53 -36
84 -44 107 -4 11 -17 41 -29 68 -11 26 -31 68 -42 95 -12 26 -25 57 -30 70 -5
12 -13 32 -18 45 -5 12 -18 42 -29 67 -11 25 -28 63 -37 85 -9 22 -23 53 -31
69 -8 16 -14 35 -14 43 0 7 -4 13 -10 13 -5 0 -10 7 -10 15 0 8 -4 23 -9 33
-8 16 -17 36 -41 97 -5 14 -14 36 -20 50 -5 14 -14 35 -19 48 -21 55 -30 75
-50 115 -11 24 -21 48 -21 53 0 5 -8 28 -19 52 -43 98 -71 165 -71 171 0 7
-35 89 -51 118 -5 10 -9 24 -9 32 0 8 -13 41 -30 73 -16 31 -30 63 -30 70 0 7
-9 28 -20 48 -11 20 -20 42 -20 50 0 8 -4 15 -8 15 -5 0 -15 23 -22 50 -7 28
-17 50 -22 50 -4 0 -8 9 -8 19 0 11 -10 39 -21 63 -12 23 -25 52 -29 63 -15
40 -28 72 -70 160 -23 50 -46 99 -50 110 -9 24 -49 113 -61 137 -5 10 -9 27
-9 38 0 11 -4 20 -10 20 -5 0 -10 7 -10 15 0 8 -10 37 -21 63 -12 26 -27 61
-34 77 -7 17 -22 50 -33 75 -11 25 -23 56 -27 70 -7 24 -22 58 -71 168 -13 29
-24 57 -24 63 0 5 -9 29 -20 51 -11 23 -20 50 -20 60 0 10 -4 18 -10 18 -5 0
-10 9 -10 19 0 11 -4 23 -10 26 -5 3 -10 14 -10 25 0 16 -12 45 -51 122 -5 10
-9 25 -9 33 0 8 -4 15 -10 15 -5 0 -10 9 -10 19 0 10 -13 45 -30 76 -16 31
-30 63 -30 71 0 8 -4 14 -10 14 -5 0 -10 9 -10 19 0 11 -4 23 -10 26 -5 3 -10
15 -10 26 0 10 -4 19 -10 19 -5 0 -10 7 -10 15 0 8 -4 23 -9 33 -26 52 -34 73
-27 79 3 4 1265 7 2804 7 2203 1 2822 -2 2917 -12 230 -24 311 -35 455 -58
155 -25 326 -59 376 -75 17 -5 40 -9 52 -9 12 0 30 -4 40 -9 29 -14 87 -31
110 -31 11 0 24 -4 27 -10 3 -5 17 -10 30 -10 13 0 27 -4 30 -10 3 -5 17 -10
30 -10 13 0 27 -4 30 -10 3 -5 15 -10 26 -10 10 0 28 -4 39 -10 11 -5 29 -14
40 -20 11 -5 29 -10 39 -10 11 0 23 -4 26 -10 3 -5 17 -10 30 -10 13 0 27 -4
30 -10 3 -5 17 -10 31 -10 13 0 24 -3 24 -8 0 -6 16 -14 85 -42 27 -10 151
-68 195 -90 32 -16 117 -64 211 -117 20 -12 47 -27 60 -35 22 -12 132 -88 154
-105 6 -5 45 -34 87 -66 100 -75 263 -237 336 -335 31 -42 59 -79 62 -82 3 -3
11 -15 18 -27 6 -13 18 -33 25 -45 6 -13 14 -25 17 -28 5 -5 38 -66 71 -132
12 -24 25 -51 30 -60 5 -10 9 -22 9 -28 0 -6 9 -29 19 -53 24 -52 55 -146 70
-212 7 -27 16 -66 21 -85 27 -109 35 -209 34 -445 -1 -237 -6 -295 -43 -555
-10 -65 -42 -204 -71 -310 -12 -41 -24 -86 -26 -100 -3 -14 -9 -34 -14 -45 -4
-11 -14 -40 -21 -65 -7 -25 -20 -63 -29 -85 -10 -22 -23 -60 -30 -85 -8 -25
-17 -49 -22 -55 -4 -5 -8 -19 -8 -31 0 -13 -5 -26 -10 -29 -5 -3 -10 -15 -10
-26 0 -10 -4 -27 -9 -37 -11 -22 -26 -59 -41 -102 -7 -19 -21 -54 -31 -77 -11
-24 -19 -45 -19 -48 0 -3 -23 -54 -50 -113 -28 -59 -68 -142 -88 -186 -72
-153 -305 -610 -322 -631 -9 -11 -46 -76 -67 -116 -7 -15 -20 -32 -28 -39 -8
-7 -15 -17 -15 -23 0 -15 -108 -196 -135 -227 -12 -14 -37 -52 -55 -85 -18
-33 -52 -88 -76 -122 -24 -35 -44 -70 -44 -78 0 -8 -4 -15 -9 -15 -5 0 -14
-13 -21 -30 -7 -16 -16 -30 -20 -30 -4 0 -14 -14 -21 -32 -7 -18 -39 -72 -71
-120 -32 -49 -58 -92 -58 -95 0 -4 -18 -28 -40 -54 -22 -26 -40 -52 -40 -57 0
-5 -12 -27 -27 -49 -16 -21 -32 -46 -38 -55 -40 -63 -81 -118 -87 -118 -5 0
-8 -6 -8 -14 0 -8 -4 -16 -8 -18 -11 -4 -102 -143 -102 -156 0 -5 -7 -15 -16
-23 -8 -7 -22 -26 -31 -42 -27 -52 -2 -64 215 -102 45 -8 87 -17 93 -20 5 -4
34 -11 62 -15 63 -11 150 -29 295 -60 60 -14 124 -27 187 -39 28 -5 68 -15 90
-21 22 -7 63 -16 90 -20 73 -13 108 -20 130 -30 11 -5 38 -11 60 -14 87 -11
121 -18 140 -26 11 -5 38 -11 60 -14 87 -11 121 -18 140 -26 11 -5 36 -11 55
-13 19 -3 53 -11 75 -17 22 -7 57 -14 78 -17 20 -3 40 -9 43 -14 3 -5 18 -9
34 -9 16 0 32 -4 35 -10 3 -5 16 -10 29 -10 12 0 26 -4 32 -8 5 -5 35 -15 67
-22 32 -7 60 -17 63 -22 3 -4 15 -8 28 -8 12 0 26 -3 30 -7 8 -9 77 -33 94
-33 7 0 31 -8 55 -19 33 -14 237 -94 362 -141 29 -11 111 -48 179 -81 32 -16
64 -29 70 -29 7 0 27 -13 46 -30 19 -16 40 -29 46 -30 13 0 206 -98 214 -108
6 -8 31 -23 105 -62 99 -52 413 -269 423 -292 2 -5 9 -8 15 -8 7 0 30 -16 52
-36 99 -88 119 -104 125 -104 16 0 337 -311 455 -440 73 -80 148 -168 165
-195 8 -12 41 -54 73 -93 31 -39 57 -75 57 -80 0 -4 8 -17 18 -28 10 -10 25
-34 32 -51 8 -18 18 -33 22 -33 5 0 8 -5 8 -11 0 -6 15 -34 33 -62 119 -184
157 -252 251 -442 72 -145 116 -241 116 -254 0 -6 9 -26 20 -46 11 -20 20 -40
20 -46 0 -5 9 -29 20 -51 11 -23 20 -49 20 -58 0 -9 4 -20 8 -26 8 -8 14 -28
45 -134 5 -19 13 -44 18 -55 11 -27 22 -67 24 -85 1 -8 7 -26 12 -40 21 -50
80 -322 122 -560 36 -204 48 -295 56 -404 3 -44 8 -83 11 -88 25 -41 42 -1018
21 -1268 -15 -189 -44 -455 -57 -540 -5 -30 -14 -95 -20 -145 -6 -49 -15 -112
-20 -140 -5 -27 -14 -84 -20 -125 -7 -41 -18 -111 -26 -155 -8 -44 -19 -107
-25 -140 -6 -33 -14 -76 -19 -95 -9 -36 -17 -77 -27 -143 -3 -20 -9 -40 -14
-43 -5 -3 -9 -20 -9 -39 0 -18 -8 -41 -17 -51 -11 -10 -18 -38 -21 -75 -3 -33
-8 -62 -13 -65 -5 -3 -9 -17 -9 -32 0 -28 -21 -96 -33 -108 -4 -4 -7 -22 -7
-41 0 -18 -4 -33 -8 -33 -4 0 -14 -21 -21 -47 -26 -93 -54 -178 -73 -219 -10
-22 -18 -46 -18 -54 0 -17 -19 -78 -32 -104 -5 -10 -12 -30 -14 -44 -3 -13
-16 -52 -29 -85 -14 -33 -25 -68 -25 -77 0 -9 -3 -20 -6 -23 -7 -6 -26 -58
-63 -167 -26 -76 -152 -393 -161 -405 -4 -5 -11 -26 -15 -45 -4 -19 -11 -41
-15 -50 -5 -8 -16 -33 -26 -55 -9 -22 -41 -92 -71 -155 -30 -63 -63 -135 -75
-160 -11 -25 -24 -52 -29 -60 -5 -8 -14 -26 -21 -40 -7 -14 -18 -33 -26 -42
-9 -10 -12 -18 -9 -18 6 0 -148 -307 -221 -440 -76 -139 -112 -207 -136 -255
-14 -27 -36 -66 -48 -85 -12 -19 -29 -48 -38 -65 -15 -27 -147 -242 -192 -313
-10 -15 -27 -43 -38 -62 -105 -180 -493 -735 -640 -914 -19 -23 -73 -92 -120
-151 -47 -60 -103 -130 -125 -156 -22 -25 -58 -68 -80 -94 -232 -281 -648
-721 -856 -904 -46 -40 -127 -112 -180 -160 -217 -195 -392 -342 -519 -434
-36 -26 -85 -64 -110 -83 -44 -34 -177 -129 -209 -149 -59 -37 -123 -79 -241
-158 -135 -90 -175 -115 -239 -149 -19 -10 -37 -21 -40 -25 -12 -16 -350 -178
-364 -175 -4 1 -15 -6 -25 -16 -10 -9 -33 -25 -52 -34 -55 -26 -107 -48 -116
-48 -4 0 -15 -6 -23 -13 -9 -8 -47 -26 -86 -41 -81 -32 -133 -54 -157 -67 -10
-5 -22 -9 -28 -9 -10 0 -86 -32 -122 -51 -10 -5 -27 -9 -37 -9 -11 0 -23 -4
-26 -10 -3 -5 -16 -10 -28 -10 -12 0 -37 -9 -55 -20 -18 -11 -41 -20 -52 -20
-10 0 -22 -5 -25 -10 -3 -6 -17 -10 -30 -10 -13 0 -27 -4 -30 -10 -3 -5 -17
-10 -31 -10 -13 0 -32 -4 -42 -9 -25 -13 -159 -49 -212 -56 -25 -4 -74 -15
-110 -25 -62 -17 -103 -27 -222 -51 -29 -5 -72 -14 -96 -20 -23 -5 -59 -9 -80
-9 -37 0 -38 2 -69 68 -68 145 -93 203 -93 215 0 7 -14 39 -30 70 -17 32 -30
62 -30 68 0 10 -30 80 -61 142 -10 22 -19 43 -19 49 0 5 -18 49 -41 96 -23 48
-44 96 -49 107 -4 11 -17 40 -29 63 -11 24 -21 48 -21 53 0 4 -11 32 -23 61
-13 29 -30 69 -37 88 -7 19 -19 49 -26 67 -8 17 -14 34 -14 38 0 11 -89 223
-111 266 -10 20 -19 43 -19 50 0 8 -9 25 -20 39 -11 14 -20 33 -20 44 0 10
-18 56 -40 102 -22 47 -40 89 -40 94 0 6 -4 18 -9 28 -5 9 -13 28 -18 42 -6
14 -20 45 -32 68 -11 24 -21 48 -21 53 0 5 -10 31 -21 57 -33 74 -46 104 -65
152 -10 25 -31 69 -46 99 -15 29 -28 59 -28 65 0 7 -6 26 -14 42 -8 16 -53
126 -101 244 -47 118 -92 227 -101 242 -8 15 -21 45 -28 66 -13 37 -52 121
-117 256 -16 32 -29 66 -29 75 0 9 -9 27 -20 41 -11 14 -20 31 -20 38 0 7 -9
34 -21 60 -12 26 -24 56 -29 67 -16 42 -28 72 -50 120 -12 28 -26 59 -30 70
-5 11 -22 50 -39 87 -17 37 -31 73 -31 80 0 8 -4 18 -8 23 -5 6 -19 37 -32 70
-13 33 -31 79 -42 102 -10 23 -18 45 -18 48 0 3 -8 25 -19 48 -20 46 -88 210
-100 242 -4 11 -17 40 -29 65 -11 25 -30 65 -41 89 -12 25 -21 50 -21 57 0 7
-10 32 -21 56 -12 23 -26 53 -30 66 -5 12 -13 32 -18 45 -4 12 -18 42 -30 65
-11 24 -18 48 -15 53 3 5 -2 12 -10 15 -9 3 -16 12 -16 20 0 8 -4 22 -9 32 -9
18 -26 58 -44 102 -5 14 -14 33 -19 43 -5 10 -6 27 -3 38 4 11 2 19 -5 19 -6
0 -22 26 -36 58 -13 31 -33 73 -43 92 -10 19 -17 40 -14 46 2 6 -3 17 -12 24
-8 7 -15 19 -15 26 0 8 -9 31 -20 51 -11 21 -20 45 -20 54 0 9 -7 22 -15 29
-8 7 -15 19 -15 26 0 8 -8 33 -19 57 -10 23 -29 67 -41 97 -29 72 -59 141 -71
162 -5 10 -9 23 -9 28 0 6 -9 29 -20 52 -12 24 -17 51 -14 64 4 16 2 24 -6 24
-18 0 -39 31 -40 58 0 12 -4 22 -10 22 -5 0 -10 8 -10 18 0 9 -9 32 -20 50
-11 18 -20 39 -20 47 0 9 -4 24 -10 35 -5 11 -15 29 -20 40 -6 12 -8 25 -5 31
4 5 -5 19 -19 30 -17 14 -26 30 -26 50 0 16 -5 29 -11 29 -6 0 -9 7 -6 15 4 8
2 17 -3 20 -13 8 -40 66 -40 87 0 10 -4 18 -10 18 -5 0 -10 9 -10 19 0 11 -6
32 -14 48 -8 15 -26 53 -39 83 -14 30 -35 75 -46 99 -12 25 -21 50 -21 55 0 6
-16 44 -35 83 -19 40 -35 78 -35 85 0 7 -10 33 -22 58 -12 25 -25 54 -29 65
-19 54 -73 181 -81 190 -4 5 -8 17 -8 27 0 10 -3 18 -8 18 -4 0 -13 19 -20 43
-7 23 -27 71 -44 107 -17 36 -36 76 -41 90 -5 14 -13 33 -18 42 -5 10 -9 26
-9 35 0 10 -9 29 -20 43 -11 14 -20 31 -20 38 0 7 -4 20 -8 30 -5 9 -19 40
-31 67 -13 28 -27 58 -32 67 -5 10 -9 25 -9 33 0 8 -4 15 -10 15 -5 0 -10 11
-10 24 0 14 -4 28 -10 31 -5 3 -10 14 -10 24 0 10 -9 30 -20 44 -11 14 -20 35
-20 47 0 11 -9 38 -19 58 -11 20 -27 57 -37 82 -9 25 -32 78 -51 118 -18 40
-33 75 -33 78 0 6 -16 44 -61 142 -16 35 -29 68 -29 75 0 7 -9 27 -20 45 -11
18 -20 38 -20 46 0 7 -6 26 -14 42 -8 16 -21 46 -30 67 -36 85 -47 109 -62
145 -9 20 -20 45 -25 54 -5 10 -9 26 -9 35 0 10 -9 29 -20 43 -11 14 -20 33
-20 42 0 10 -9 33 -20 53 -11 20 -20 42 -20 49 0 12 -14 44 -51 118 -5 10 -9
25 -9 33 0 8 -4 15 -10 15 -5 0 -10 9 -10 19 0 11 -4 23 -10 26 -5 3 -10 17
-10 31 0 13 -4 24 -10 24 -5 0 -10 5 -10 12 0 12 -57 158 -91 233 -9 22 -31
71 -48 108 -17 37 -31 71 -31 76 0 4 -13 35 -30 69 -16 34 -30 66 -30 70 0 5
-9 27 -20 50 -11 22 -20 45 -20 50 0 9 -9 32 -64 157 -7 17 -18 41 -23 55 -6
14 -25 57 -43 95 -18 39 -36 79 -40 90 -4 11 -21 49 -39 84 -17 35 -31 70 -31
77 0 8 -4 14 -10 14 -5 0 -10 11 -10 24 0 21 -11 49 -51 128 -5 10 -9 25 -9
33 0 8 -4 23 -9 33 -17 31 -41 90 -41 99 0 5 -13 35 -30 66 -16 32 -30 63 -30
69 0 11 -30 81 -51 121 -5 9 -19 43 -31 75 -12 31 -30 72 -40 90 -10 18 -18
37 -18 42 0 6 -9 32 -21 58 -47 106 -62 138 -70 154 -5 10 -9 25 -9 33 0 8 -4
15 -10 15 -5 0 -10 9 -10 19 0 11 -4 23 -10 26 -5 3 -10 17 -10 31 0 13 -3 24
-7 24 -9 0 -33 49 -33 67 0 7 -4 13 -10 13 -5 0 -10 7 -10 15 0 8 -4 23 -9 33
-37 73 -51 106 -51 117 0 7 -13 39 -30 70 -16 31 -30 66 -30 76 0 10 -4 19
-10 19 -5 0 -10 7 -10 15 0 8 -5 25 -12 38 -24 47 -28 57 -28 72 0 8 -4 15
-10 15 -5 0 -10 9 -10 20 0 11 -9 35 -20 55 -11 20 -20 44 -20 53 0 10 -4 22
-9 28 -11 13 -81 183 -81 199 0 7 -9 24 -20 38 -11 14 -20 32 -20 40 0 13 -13
44 -51 119 -5 10 -9 27 -9 38 0 11 -4 20 -10 20 -5 0 -10 11 -10 25 0 14 -4
25 -10 25 -5 0 -10 9 -10 19 0 11 -4 23 -10 26 -5 3 -10 15 -10 26 0 10 -4 19
-10 19 -5 0 -10 7 -10 15 0 8 -4 24 -10 35 -5 11 -14 29 -20 40 -5 11 -10 29
-10 40 0 11 -4 20 -10 20 -5 0 -10 9 -10 20 0 11 -4 20 -10 20 -5 0 -10 9 -10
19 0 11 -4 23 -10 26 -5 3 -10 16 -10 28 0 12 -9 33 -20 47 -11 14 -20 33 -20
43 0 9 -4 17 -10 17 -5 0 -10 9 -10 19 0 11 -8 36 -19 58 -10 21 -29 61 -41
88 -12 28 -26 58 -31 67 -5 10 -9 22 -9 28 0 6 -9 32 -21 58 -12 26 -25 56
-29 67 -4 11 -15 36 -23 55 -55 128 -77 184 -77 194 0 6 -9 22 -20 36 -11 14
-20 34 -20 45 0 11 -9 35 -21 54 -11 19 -18 43 -16 53 3 11 0 21 -8 24 -7 3
-19 20 -25 37 -7 18 -16 42 -21 55 -5 12 -13 32 -18 45 -4 12 -18 42 -30 65
-11 24 -21 48 -21 53 0 9 -33 87 -51 121 -5 10 -9 26 -9 37 0 11 -3 21 -7 23
-13 5 -53 88 -53 108 0 24 -21 70 -32 70 -4 0 -8 9 -8 20 0 11 -4 20 -10 20
-5 0 -10 9 -10 19 0 11 -4 23 -10 26 -5 3 -10 15 -10 26 0 10 -4 19 -10 19 -5
0 -10 9 -10 19 0 11 -4 23 -10 26 -5 3 -10 17 -10 31 0 13 -4 24 -10 24 -5 0
-10 8 -10 18 0 10 -11 40 -24 68 -13 27 -41 90 -61 139 -20 50 -44 106 -52
125 -8 19 -18 44 -22 55 -5 11 -18 40 -29 65 -46 104 -62 140 -62 145 0 3 -9
27 -21 53 -26 58 -34 77 -49 122 -7 19 -22 55 -33 80 -11 25 -24 54 -27 65 -4
11 -17 40 -29 63 -11 24 -21 52 -21 63 0 10 -4 19 -10 19 -5 0 -10 7 -10 15 0
8 -4 23 -9 33 -12 23 -51 111 -63 142 -6 14 -14 33 -19 42 -5 10 -9 25 -9 33
0 8 -3 15 -7 15 -9 0 -33 49 -33 67 0 7 -9 28 -20 48 -11 20 -20 44 -20 53 0
10 -4 22 -9 28 -5 5 -18 36 -30 69 -21 56 -75 182 -158 370 -58 130 -74 169
-84 193 -5 12 -13 32 -18 45 -5 12 -18 43 -30 69 -12 26 -21 51 -21 56 0 8
-30 77 -49 112 -4 8 -14 36 -22 63 -7 26 -17 47 -21 47 -4 0 -8 6 -8 13 0 12
-29 80 -50 119 -6 10 -10 25 -10 33 0 8 -4 15 -10 15 -5 0 -10 9 -10 19 0 11
-4 23 -10 26 -5 3 -10 15 -10 26 0 10 -4 19 -10 19 -5 0 -10 11 -10 25 0 14
-4 25 -10 25 -5 0 -10 7 -10 15 0 8 -4 23 -9 33 -5 9 -13 28 -19 42 -5 14 -19
45 -30 70 -11 25 -41 99 -67 165 -46 115 -61 152 -105 250 -11 25 -20 47 -20
50 0 2 -13 33 -30 67 -16 34 -30 67 -30 75 0 7 -4 13 -10 13 -5 0 -10 7 -10
15 0 9 -9 35 -20 57 -11 23 -20 50 -20 60 0 10 -4 18 -9 18 -5 0 -15 20 -22
45 -7 25 -17 45 -21 45 -4 0 -8 9 -8 20 0 28 -21 70 -35 70 -7 0 -15 -8 -18
-17 -3 -10 -12 -29 -20 -43 -8 -14 -20 -38 -27 -55 -7 -16 -16 -38 -21 -47 -5
-10 -9 -25 -9 -33 0 -8 -4 -15 -10 -15 -5 0 -10 -7 -10 -15 0 -8 -4 -24 -10
-35 -5 -11 -14 -29 -20 -40 -5 -11 -10 -27 -10 -35 0 -8 -4 -15 -10 -15 -5 0
-10 -7 -10 -15 0 -8 -13 -43 -28 -77 -16 -35 -34 -79 -41 -98 -7 -19 -22 -55
-33 -80 -11 -25 -24 -55 -29 -67 -29 -74 -40 -100 -119 -278 -12 -27 -28 -63
-35 -80 -7 -16 -25 -56 -39 -87 -14 -31 -26 -61 -26 -66 0 -10 -32 -92 -61
-159 -11 -24 -19 -46 -19 -51 0 -8 -33 -82 -50 -114 -6 -10 -10 -25 -10 -33 0
-8 -4 -15 -10 -15 -5 0 -10 -11 -10 -25 0 -14 -4 -25 -10 -25 -5 0 -10 -7 -10
-16 0 -9 -8 -28 -18 -42 -10 -15 -24 -40 -31 -57 -7 -16 -17 -38 -22 -47 -5
-10 -9 -22 -9 -28 0 -5 -11 -33 -24 -62 -35 -77 -66 -148 -83 -188 -8 -19 -19
-43 -24 -52 -5 -10 -9 -22 -9 -28 0 -5 -11 -33 -24 -62 -38 -86 -38 -89 -15
-147 12 -31 26 -60 31 -65 4 -6 8 -16 8 -23 0 -8 9 -33 20 -55 11 -23 20 -48
20 -55 0 -7 9 -27 20 -45 11 -18 20 -41 20 -50 0 -10 5 -18 10 -18 6 0 10 -8
10 -17 0 -24 23 -83 32 -83 4 0 8 -9 8 -20 0 -11 4 -28 9 -38 11 -22 63 -135
86 -187 37 -85 44 -102 63 -155 11 -30 45 -118 77 -195 31 -77 61 -149 65
-160 19 -48 44 -104 66 -149 13 -28 24 -54 24 -58 0 -5 10 -30 21 -56 42 -93
49 -110 49 -117 0 -7 7 -24 49 -117 11 -26 21 -54 21 -62 0 -8 5 -18 10 -21 6
-3 10 -14 10 -23 0 -9 9 -28 20 -42 11 -14 20 -35 20 -47 0 -13 5 -23 10 -23
6 0 10 -9 10 -19 0 -19 53 -127 71 -145 5 -6 9 -20 9 -33 0 -13 5 -23 10 -23
6 0 10 -9 10 -20 0 -11 4 -28 9 -38 5 -9 13 -28 19 -42 6 -14 19 -45 30 -70
11 -25 43 -101 71 -170 29 -69 63 -148 77 -177 13 -28 24 -58 24 -65 0 -8 4
-18 8 -24 5 -5 15 -25 22 -44 18 -48 68 -161 80 -182 6 -10 10 -25 10 -33 0
-8 4 -23 9 -33 39 -77 51 -106 51 -123 0 -10 5 -19 10 -19 6 0 10 -6 10 -13 0
-7 9 -32 20 -55 11 -22 20 -45 20 -51 0 -13 43 -95 53 -99 4 -2 7 -14 7 -27 0
-13 8 -40 19 -62 31 -62 58 -126 71 -163 7 -19 25 -62 40 -95 47 -102 88 -198
109 -255 10 -30 31 -78 45 -106 14 -29 26 -57 26 -63 0 -6 14 -39 30 -73 17
-34 30 -67 30 -74 0 -12 23 -62 81 -177 10 -22 19 -45 19 -53 0 -8 4 -22 9
-32 5 -9 13 -28 19 -42 5 -14 24 -56 42 -95 18 -38 37 -81 42 -95 6 -14 14
-33 19 -42 5 -10 9 -27 9 -38 0 -11 5 -20 10 -20 6 0 10 -9 10 -19 0 -10 14
-45 30 -76 17 -31 30 -66 30 -76 0 -10 5 -19 10 -19 6 0 10 -5 10 -10 0 -6 9
-30 20 -52 11 -23 20 -48 20 -55 0 -7 4 -21 9 -31 19 -36 71 -159 71 -168 1
-5 9 -27 20 -49 11 -22 19 -44 20 -48 0 -11 15 -46 93 -217 56 -122 77 -171
77 -179 0 -5 10 -29 21 -53 12 -23 26 -54 32 -68 5 -14 13 -33 18 -42 5 -10 9
-22 9 -28 0 -6 9 -32 21 -58 28 -63 79 -173 90 -194 5 -10 9 -27 9 -38 0 -11
3 -20 8 -20 7 0 32 -48 32 -62 0 -5 9 -30 21 -56 12 -26 24 -56 28 -67 4 -11
18 -42 30 -70 13 -27 27 -59 31 -70 4 -11 15 -36 23 -55 8 -19 24 -62 37 -95
13 -33 26 -64 30 -70 11 -15 70 -179 70 -194 0 -6 9 -21 20 -33 11 -12 20 -30
20 -39 0 -10 14 -44 30 -76 17 -31 30 -63 30 -70 0 -7 4 -21 9 -31 9 -16 22
-45 57 -129 8 -21 23 -56 33 -78 47 -101 61 -137 73 -174 7 -23 16 -41 19 -41
4 0 12 -15 19 -32 18 -49 26 -69 49 -120 11 -26 26 -65 33 -87 7 -23 16 -41
20 -41 5 0 8 -7 8 -15 0 -8 13 -43 29 -77 16 -35 37 -85 46 -113 10 -27 29
-74 42 -103 12 -29 23 -57 23 -63 0 -6 6 -23 14 -37 7 -15 18 -38 23 -52 6
-14 20 -46 32 -73 11 -26 21 -56 21 -66 0 -10 9 -26 20 -36 11 -10 20 -26 20
-35 0 -9 6 -30 14 -46 14 -29 41 -92 56 -129 4 -11 22 -50 39 -87 17 -37 31
-72 31 -77 0 -6 5 -11 10 -11 6 0 10 -7 10 -15 0 -8 5 -25 12 -38 24 -47 28
-57 28 -72 0 -8 5 -15 10 -15 6 0 10 -11 10 -24 0 -13 14 -52 31 -87 18 -35
35 -73 39 -84 3 -11 16 -40 27 -65 62 -134 123 -280 123 -292 0 -6 11 -32 25
-60 14 -27 25 -55 25 -62 0 -7 9 -31 20 -54 11 -22 20 -45 20 -50 0 -4 14 -35
30 -67 17 -32 30 -67 30 -77 0 -10 4 -18 8 -18 4 0 14 -17 21 -37 8 -21 27
-66 42 -101 16 -34 29 -66 29 -71 0 -8 17 -45 51 -113 5 -10 9 -24 9 -32 0 -8
14 -43 31 -78 17 -34 35 -72 39 -83 5 -11 23 -51 40 -90 18 -38 37 -81 42 -95
6 -14 14 -33 19 -42 5 -10 9 -27 9 -37 0 -11 4 -22 8 -25 8 -5 21 -35 92 -211
18 -44 46 -109 62 -145 36 -80 40 -90 68 -165 12 -33 31 -79 41 -102 11 -24
19 -46 19 -51 0 -4 13 -34 30 -67 16 -33 30 -65 30 -71 0 -6 6 -24 14 -40 8
-16 22 -47 31 -69 9 -22 26 -56 36 -76 10 -20 19 -44 19 -53 0 -9 4 -16 8 -16
5 0 15 -23 22 -50 7 -28 17 -50 22 -50 4 0 8 -6 8 -14 0 -8 10 -34 21 -58 20
-40 29 -61 49 -113 5 -11 17 -41 29 -67 12 -26 21 -52 21 -58 0 -5 8 -24 18
-42 10 -18 35 -76 56 -128 21 -52 45 -108 52 -125 30 -68 78 -186 110 -275 20
-52 49 -124 66 -160 17 -36 34 -74 38 -85 4 -11 17 -40 28 -65 12 -25 27 -61
35 -80 20 -48 45 -106 69 -160 11 -25 24 -54 28 -65 11 -30 26 -67 38 -95 40
-89 222 -526 241 -575 12 -33 30 -78 40 -100 41 -88 61 -135 61 -140 0 -3 10
-27 21 -53 12 -26 28 -63 36 -82 8 -19 26 -60 40 -90 14 -30 29 -64 33 -75 4
-11 17 -41 29 -67 12 -26 21 -50 21 -53 0 -3 15 -38 34 -78 18 -40 40 -88 49
-107 8 -19 24 -56 36 -82 11 -26 21 -52 21 -56 0 -5 6 -22 14 -38 8 -16 35
-81 61 -144 49 -120 62 -150 89 -212 9 -20 16 -39 16 -42 0 -3 15 -36 33 -73
17 -38 38 -86 46 -108 13 -38 25 -66 71 -170 11 -25 20 -47 20 -50 0 -3 9 -27
21 -53 12 -26 25 -56 29 -67 4 -11 16 -38 25 -60 10 -22 23 -53 30 -70 7 -16
22 -51 34 -77 11 -26 21 -52 21 -58 0 -6 4 -18 10 -28 20 -36 70 -153 70 -165
0 -7 4 -17 8 -22 5 -6 15 -26 22 -45 8 -19 23 -57 35 -85 13 -27 34 -79 48
-115 15 -36 38 -87 51 -115 14 -27 26 -55 26 -61 0 -10 20 -58 75 -179 7 -16
21 -50 30 -75 24 -64 24 -64 81 -197 9 -21 25 -58 36 -83 20 -44 33 -74 48
-115 5 -11 22 -50 39 -87 17 -37 31 -71 31 -76 0 -6 10 -30 21 -54 12 -23 25
-52 29 -63 12 -33 26 -67 48 -115 20 -46 28 -65 80 -185 64 -152 102 -244 138
-335 44 -112 80 -167 114 -178 70 -20 779 -3 1135 28 195 17 463 54 590 80 62
13 127 26 180 35 22 4 49 10 60 15 42 18 62 23 105 31 50 9 104 22 165 39 22
7 55 14 73 17 18 3 35 9 38 14 3 5 16 9 30 9 13 0 32 4 42 9 15 8 46 17 140
42 101 27 132 38 352 119 190 71 489 195 504 211 6 5 20 9 32 9 13 0 26 4 29
10 3 5 36 24 73 41 79 37 118 56 162 80 8 5 51 27 95 50 44 22 84 45 89 50 6
5 17 9 25 9 9 0 27 9 41 20 14 11 31 20 39 20 8 0 22 6 30 14 9 7 56 35 105
61 49 26 130 72 179 101 49 30 93 54 97 54 5 0 10 4 12 8 3 7 28 23 127 82 14
9 46 29 70 45 24 17 51 35 60 40 9 6 34 23 56 39 65 48 134 98 230 166 50 35
113 82 141 104 28 23 75 59 104 81 97 74 344 277 419 344 40 36 81 70 90 75 9
5 23 17 31 25 8 9 35 34 60 55 161 140 642 612 841 827 98 106 340 375 375
417 10 13 28 33 38 45 26 30 285 350 316 391 35 46 75 98 145 187 33 42 81
108 108 145 26 38 65 94 87 124 22 30 59 82 82 115 23 33 57 83 76 110 63 89
69 98 151 225 101 154 93 143 139 215 21 33 55 90 76 127 21 37 42 70 47 73 4
3 16 23 26 43 9 20 29 55 43 77 15 22 43 69 62 105 19 36 44 81 55 101 11 19
42 73 68 120 27 46 58 100 70 119 12 19 25 45 29 57 4 12 13 24 21 27 8 3 15
14 15 24 0 10 4 22 9 28 14 15 43 67 122 224 29 58 56 106 61 108 4 2 8 10 8
18 0 9 18 52 39 97 98 203 161 337 161 342 0 4 11 30 24 58 53 116 66 147 66
152 0 2 17 42 38 87 50 107 82 187 82 204 0 8 5 14 10 14 6 0 10 7 10 15 0 8
4 23 9 33 9 18 26 58 44 102 5 14 13 33 18 42 5 10 9 25 9 33 0 8 4 23 9 33
20 40 42 97 60 157 7 22 16 49 21 60 5 11 19 49 31 85 12 36 25 70 29 75 4 6
13 33 20 60 6 28 18 64 26 82 8 17 14 35 14 40 0 4 20 69 44 143 58 177 159
538 195 695 5 20 13 30 26 30 14 0 21 9 26 33 7 32 -2 49 -21 37 -5 -3 -10 -2
-10 4 0 5 5 13 10 16 5 3 10 21 10 40 0 19 5 37 10 40 6 3 10 22 10 41 0 19 5
34 10 34 6 0 10 14 10 30 0 17 4 30 9 30 5 0 12 24 14 53 9 80 17 130 27 152
5 11 11 36 14 55 3 19 10 58 15 85 6 28 16 77 21 110 5 33 15 83 20 110 6 28
15 82 20 120 6 39 15 102 20 140 21 140 30 212 40 300 5 50 14 135 20 190 22
198 29 326 41 685 12 361 4 784 -21 1060 -40 445 -64 634 -120 940 -6 30 -13
76 -16 103 -4 26 -11 50 -15 53 -5 3 -9 23 -9 44 0 21 -4 42 -10 45 -5 3 -10
21 -10 40 0 19 -4 37 -10 40 -5 3 -10 16 -10 27 0 12 -4 35 -9 52 -5 17 -15
51 -22 76 -20 75 -31 114 -40 135 -4 11 -13 40 -20 65 -6 25 -15 54 -20 65 -5
11 -17 52 -28 90 -11 39 -40 126 -64 195 -62 172 -72 199 -92 245 -10 22 -21
49 -25 60 -24 65 -106 247 -152 340 -58 114 -122 233 -139 257 -11 14 -19 29
-19 33 0 7 -115 209 -165 290 -55 89 -83 131 -112 171 -18 23 -33 49 -33 57 0
7 -10 23 -22 34 -13 11 -34 35 -48 53 -14 18 -31 38 -37 45 -7 8 -13 16 -13
20 0 4 -24 35 -52 69 -29 34 -64 77 -78 96 -14 19 -45 56 -70 83 -25 27 -56
62 -70 78 -102 116 -288 309 -298 309 -2 0 -17 13 -33 29 -31 32 -36 62 -18
108 11 27 20 50 38 96 13 33 51 126 72 174 11 24 19 45 19 48 0 2 11 28 24 57
13 29 47 109 76 178 29 69 65 153 81 187 16 34 29 69 29 77 0 8 5 18 10 21 6
3 10 15 10 26 0 11 9 29 20 41 11 12 20 30 20 40 0 10 4 26 9 36 5 9 13 28 18
42 22 55 31 77 53 125 22 48 31 70 53 125 5 14 13 33 18 42 5 10 9 25 9 33 0
8 5 15 10 15 6 0 10 7 10 15 0 8 8 34 19 58 10 23 28 67 41 97 13 30 30 71 38
90 8 19 25 60 39 90 14 30 29 64 33 75 12 32 61 146 81 192 11 23 19 45 19 48
0 17 76 197 121 288 10 22 19 43 19 48 0 9 33 87 51 121 5 10 9 25 9 33 0 8 5
15 10 15 6 0 10 11 10 25 0 14 5 25 10 25 6 0 10 7 10 15 0 8 4 23 9 33 22 42
51 110 63 147 7 22 21 55 30 73 10 18 18 37 18 42 0 10 6 25 59 142 11 26 21
52 21 56 0 5 13 36 30 70 16 34 30 68 30 75 0 7 4 17 9 23 4 5 25 50 45 99 21
50 47 113 58 140 12 28 27 65 34 83 23 54 45 105 66 152 11 25 24 54 28 65 11
29 63 149 91 213 10 23 28 63 40 90 12 26 25 55 30 64 5 10 9 25 9 33 0 8 4
15 8 15 4 0 14 21 21 46 8 25 22 63 32 85 11 21 19 45 19 54 0 8 5 15 10 15 6
0 10 7 10 15 0 8 9 37 21 63 25 55 39 89 49 117 4 11 12 31 18 45 37 83 140
330 174 415 22 55 46 115 54 133 8 17 21 49 30 70 9 20 27 59 40 86 13 28 24
56 24 63 0 7 5 13 10 13 6 0 10 9 10 19 0 11 5 23 10 26 6 3 10 17 10 31 0 13
5 24 10 24 6 0 10 7 10 15 0 8 4 23 9 33 5 9 13 28 19 42 5 14 20 48 32 75 55
120 64 141 72 163 13 36 25 64 47 114 12 26 21 50 21 53 0 3 10 27 21 53 39
86 47 105 134 322 48 118 98 239 111 268 13 29 24 59 24 67 0 8 3 15 8 15 4 0
13 15 20 33 28 68 35 83 43 99 5 10 9 25 9 33 0 8 5 15 10 15 6 0 10 9 10 19
0 11 5 23 10 26 5 3 10 15 10 26 0 10 5 19 10 19 6 0 10 6 10 14 0 8 10 34 21
58 12 23 26 53 30 66 21 54 28 70 49 117 12 28 26 59 30 70 13 35 27 69 58
136 17 37 38 88 47 115 9 27 23 63 30 79 34 76 105 243 105 249 0 3 8 25 19
49 10 23 24 58 31 77 14 36 65 152 81 182 5 10 9 25 9 33 0 8 5 15 10 15 6 0
10 6 10 13 0 13 23 67 60 140 11 22 20 45 20 53 0 8 5 14 10 14 6 0 10 7 10
15 0 8 4 23 9 33 5 9 16 33 24 52 57 133 59 146 22 160 -41 16 -1887 13 -1906
-2 -9 -7 -24 -35 -33 -63 -16 -46 -46 -117 -67 -157 -5 -10 -9 -25 -9 -33 0
-8 -4 -15 -9 -15 -5 0 -14 -15 -21 -32 -22 -60 -27 -73 -49 -120 -11 -27 -31
-69 -42 -95 -12 -27 -25 -57 -29 -68 -4 -11 -12 -31 -17 -45 -6 -14 -15 -36
-20 -50 -21 -53 -32 -77 -62 -142 -17 -37 -31 -71 -31 -76 0 -6 -10 -30 -21
-54 -12 -23 -25 -52 -29 -63 -11 -29 -38 -91 -67 -155 -36 -79 -40 -89 -63
-150 -11 -30 -25 -64 -30 -75 -21 -46 -60 -149 -60 -161 0 -6 -7 -15 -16 -18
-8 -3 -13 -10 -9 -16 3 -5 2 -17 -3 -27 -34 -67 -52 -106 -52 -115 0 -5 -11
-24 -25 -42 -15 -20 -23 -40 -19 -50 4 -10 0 -18 -10 -22 -9 -3 -16 -11 -15
-18 2 -10 -1 -21 -21 -71 -10 -26 -50 -115 -61 -137 -5 -10 -9 -25 -9 -33 0
-8 -4 -15 -10 -15 -5 0 -10 -9 -10 -19 0 -11 -4 -23 -10 -26 -5 -3 -10 -17
-10 -31 0 -13 -4 -24 -10 -24 -5 0 -10 -7 -10 -15 0 -8 -10 -37 -21 -63 -21
-46 -32 -73 -65 -149 -9 -21 -20 -46 -25 -55 -5 -10 -9 -22 -9 -28 0 -5 -12
-35 -27 -67 -29 -64 -36 -80 -83 -198 -17 -44 -38 -96 -47 -115 -8 -19 -18
-44 -23 -55 -19 -51 -29 -73 -49 -113 -11 -24 -21 -52 -21 -63 0 -10 -4 -19
-10 -19 -5 0 -10 -9 -10 -20 0 -11 -4 -20 -10 -20 -5 0 -10 -6 -10 -14 0 -8
-9 -31 -19 -53 -34 -69 -81 -174 -81 -181 0 -4 -13 -34 -30 -67 -16 -33 -30
-65 -30 -71 0 -5 -9 -29 -20 -52 -11 -22 -20 -45 -20 -49 0 -5 -13 -35 -30
-68 -16 -33 -30 -66 -30 -73 0 -7 -4 -20 -9 -30 -14 -25 -51 -111 -51 -117 0
-2 -13 -34 -30 -70 -16 -36 -30 -68 -30 -70 0 -3 -9 -24 -20 -48 -29 -62 -79
-186 -96 -237 -8 -25 -24 -65 -36 -90 -11 -25 -24 -55 -29 -67 -20 -52 -28
-71 -52 -123 -14 -30 -32 -72 -41 -92 -38 -90 -47 -107 -56 -113 -6 -4 -8 -11
-4 -16 3 -6 -1 -18 -10 -28 -9 -10 -16 -22 -15 -27 1 -5 -10 -35 -24 -67 -15
-32 -27 -63 -27 -70 0 -7 -4 -17 -9 -23 -12 -11 -67 -138 -133 -304 -44 -111
-68 -169 -114 -275 -7 -16 -23 -57 -35 -90 -12 -33 -31 -75 -41 -93 -10 -18
-18 -39 -18 -47 0 -8 -9 -30 -20 -50 -11 -20 -20 -44 -20 -55 0 -11 -4 -20
-10 -20 -5 0 -10 -7 -10 -15 0 -8 -4 -23 -9 -33 -37 -74 -51 -106 -51 -118 0
-8 -4 -14 -8 -14 -4 0 -14 -17 -21 -37 -13 -41 -15 -45 -59 -143 -16 -36 -40
-90 -52 -120 -12 -30 -31 -75 -42 -100 -11 -25 -22 -49 -23 -55 -1 -5 -14 -37
-29 -70 -15 -33 -30 -69 -35 -80 -5 -11 -13 -31 -19 -45 -6 -14 -27 -65 -48
-115 -20 -49 -47 -112 -59 -140 -32 -71 -75 -188 -75 -203 0 -6 -4 -12 -10
-12 -5 0 -10 -9 -10 -20 0 -11 -4 -28 -9 -38 -37 -74 -51 -106 -51 -118 0 -8
-4 -22 -9 -32 -5 -9 -23 -47 -41 -84 -17 -38 -35 -68 -41 -68 -11 0 -62 27
-84 43 -15 11 -169 91 -245 127 -36 17 -72 35 -80 40 -16 11 -48 26 -90 42
-14 6 -33 14 -42 19 -10 5 -25 9 -33 9 -8 0 -15 5 -15 10 0 6 -11 10 -24 10
-14 0 -28 5 -31 10 -3 6 -14 10 -23 10 -15 0 -37 9 -124 52 -10 4 -27 8 -38 8
-11 0 -20 5 -20 10 0 6 -10 10 -23 10 -13 0 -27 4 -32 8 -6 5 -30 14 -55 21
-25 7 -53 17 -62 22 -10 5 -29 9 -43 9 -14 0 -25 5 -25 10 0 6 -8 10 -19 10
-37 0 -41 22 -10 75 15 28 59 111 96 185 37 74 70 137 73 140 3 3 10 16 16 30
7 14 34 72 62 130 27 58 60 132 73 165 12 33 25 65 29 70 4 6 22 51 40 100 18
50 38 104 45 120 8 17 21 53 30 80 9 28 22 64 29 80 32 74 56 139 56 154 0 10
4 21 8 26 5 6 19 44 31 85 13 41 27 83 32 92 5 10 9 29 9 42 0 14 5 28 10 31
6 3 10 19 10 35 0 16 4 31 9 34 5 3 11 20 14 38 7 38 21 104 37 168 6 25 16
68 21 95 5 28 14 73 20 100 113 563 137 1221 60 1660 -32 182 -46 247 -61 300
-7 22 -14 55 -17 73 -3 18 -9 35 -14 38 -5 3 -9 15 -9 26 0 23 -17 81 -31 110
-5 10 -9 25 -9 33 0 8 -4 23 -9 33 -5 9 -14 35 -20 57 -13 41 -26 76 -42 107
-5 10 -9 22 -9 28 0 30 -180 400 -251 519 -22 34 -39 65 -39 68 0 8 -64 98
-72 101 -4 2 -8 8 -8 13 0 5 -16 30 -36 56 -20 27 -45 61 -57 77 -160 216
-428 492 -644 663 -33 26 -77 62 -98 78 -42 33 -94 71 -205 147 -41 28 -77 54
-80 58 -3 4 -20 15 -37 24 -18 9 -33 21 -33 26 0 6 -9 10 -19 10 -11 0 -26 7
-35 15 -8 8 -21 15 -30 15 -8 0 -17 4 -20 9 -3 5 -26 18 -51 30 -25 12 -45 28
-45 36 0 9 -9 15 -25 15 -14 0 -54 16 -91 35 -36 19 -71 35 -77 35 -7 0 -23 9
-37 20 -14 11 -33 20 -42 20 -10 0 -18 5 -18 10 0 6 -4 10 -10 10 -5 0 -47 17
-92 38 -46 22 -105 47 -131 57 -26 10 -50 22 -53 26 -3 5 -14 9 -24 9 -11 0
-49 14 -85 30 -36 17 -72 30 -80 30 -7 0 -17 5 -20 10 -3 6 -17 10 -31 10 -13
0 -33 5 -44 10 -11 6 -29 15 -40 20 -11 6 -28 10 -39 10 -10 0 -32 7 -47 15
-16 8 -46 18 -67 21 -20 4 -40 11 -43 15 -3 5 -16 9 -29 9 -13 0 -27 5 -30 10
-3 6 -17 10 -30 10 -13 0 -27 5 -30 10 -3 6 -21 10 -40 10 -19 0 -37 5 -40 10
-3 6 -21 10 -40 10 -19 0 -37 5 -40 10 -3 6 -26 10 -50 10 -24 0 -46 4 -49 9
-3 5 -23 11 -43 15 -21 3 -56 8 -78 11 -22 4 -49 10 -60 15 -11 5 -38 11 -60
14 -22 2 -66 10 -97 15 -32 6 -84 16 -115 22 -107 19 -311 46 -413 54 -80 7
-254 23 -425 40 -82 8 -166 16 -185 16 -19 0 -1542 2 -3385 4 -2171 2 -3357
-1 -3371 -7z m15113 -16450 c-3 -7 -5 -2 -5 12 0 14 2 19 5 13 2 -7 2 -19 0
-25z"/>
<path d="M9580 15733 c0 -25 3 -44 6 -40 10 10 13 87 3 87 -5 0 -9 -21 -9 -47z"/>
<path d="M23020 11750 c0 -5 5 -10 10 -10 6 0 10 5 10 10 0 6 -4 10 -10 10 -5
0 -10 -4 -10 -10z"/>
</g>
</svg>
